<mxfile host="Electron" agent="Mozilla/5.0 (Windows NT 10.0; Win64; x64) AppleWebKit/537.36 (KHTML, like Gecko) draw.io/26.0.9 Chrome/128.0.6613.186 Electron/32.2.5 Safari/537.36" version="26.0.9">
  <diagram name="Page-1" id="9JX2t0Or7LpimqANOA2Z">
    <mxGraphModel dx="1684" dy="1258" grid="1" gridSize="10" guides="1" tooltips="1" connect="1" arrows="1" fold="1" page="1" pageScale="1" pageWidth="850" pageHeight="1100" math="0" shadow="0">
      <root>
        <mxCell id="0" />
        <mxCell id="1" parent="0" />
        <mxCell id="4zPNg0r05DYTZhRYqtiM-5" value="&lt;p style=&quot;margin:0px;margin-top:4px;text-align:center;&quot;&gt;&lt;i&gt;&amp;lt;&amp;lt;Abstract&amp;gt;&amp;gt;&lt;/i&gt;&lt;br&gt;&lt;b&gt;BacktestEngine&lt;/b&gt;&lt;/p&gt;&lt;hr size=&quot;1&quot; style=&quot;border-style:solid;&quot;&gt;&lt;p style=&quot;margin:0px;margin-left:4px;&quot;&gt;&lt;br&gt;&lt;/p&gt;&lt;hr size=&quot;1&quot; style=&quot;border-style:solid;&quot;&gt;&lt;p style=&quot;margin:0px;margin-left:4px;&quot;&gt;+ set_file(str)&lt;br&gt;+ read_file( )&lt;br&gt;+ set_client(WebClient)&lt;br&gt;+ connect_market( )&lt;br&gt;+ set_strategy(TradingStrategy)&lt;br&gt;&lt;/p&gt;&lt;p style=&quot;margin:0px;margin-left:4px;&quot;&gt;+ run_live_backtest( )&lt;br&gt;&lt;/p&gt;&lt;p style=&quot;margin:0px;margin-left:4px;&quot;&gt;+ run_backtest( )&lt;br&gt;&lt;/p&gt;&lt;p style=&quot;margin:0px;margin-left:4px;&quot;&gt;+ run( )&lt;br&gt;&lt;/p&gt;" style="verticalAlign=top;align=left;overflow=fill;html=1;whiteSpace=wrap;" parent="1" vertex="1">
          <mxGeometry x="260" y="70" width="190" height="200" as="geometry" />
        </mxCell>
        <mxCell id="4zPNg0r05DYTZhRYqtiM-18" value="&lt;p style=&quot;margin:0px;margin-top:4px;text-align:center;&quot;&gt;&lt;b&gt;MarketData&lt;/b&gt;&lt;/p&gt;&lt;hr size=&quot;1&quot; style=&quot;border-style:solid;&quot;&gt;&lt;p style=&quot;margin:0px;margin-left:4px;&quot;&gt;&lt;/p&gt;&lt;p style=&quot;margin:0px;margin-left:4px;&quot;&gt;&lt;br&gt;&lt;/p&gt;" style="verticalAlign=top;align=left;overflow=fill;html=1;whiteSpace=wrap;" parent="1" vertex="1">
          <mxGeometry x="-200" y="475" width="100" height="30" as="geometry" />
        </mxCell>
        <mxCell id="UkDVMLqjuk15lfy5r8hH-11" style="edgeStyle=orthogonalEdgeStyle;rounded=0;orthogonalLoop=1;jettySize=auto;html=1;entryX=0.5;entryY=1;entryDx=0;entryDy=0;exitX=0.5;exitY=0;exitDx=0;exitDy=0;endArrow=block;endFill=0;" edge="1" parent="1" source="UkDVMLqjuk15lfy5r8hH-2" target="4zPNg0r05DYTZhRYqtiM-5">
          <mxGeometry relative="1" as="geometry" />
        </mxCell>
        <mxCell id="UkDVMLqjuk15lfy5r8hH-24" style="edgeStyle=orthogonalEdgeStyle;rounded=0;orthogonalLoop=1;jettySize=auto;html=1;entryX=1;entryY=0.5;entryDx=0;entryDy=0;" edge="1" parent="1" source="UkDVMLqjuk15lfy5r8hH-2" target="4zPNg0r05DYTZhRYqtiM-18">
          <mxGeometry relative="1" as="geometry" />
        </mxCell>
        <mxCell id="UkDVMLqjuk15lfy5r8hH-28" style="edgeStyle=orthogonalEdgeStyle;rounded=0;orthogonalLoop=1;jettySize=auto;html=1;entryX=0.5;entryY=0;entryDx=0;entryDy=0;startArrow=diamond;startFill=0;endArrow=classic;endFill=1;" edge="1" parent="1" source="UkDVMLqjuk15lfy5r8hH-2" target="UkDVMLqjuk15lfy5r8hH-21">
          <mxGeometry relative="1" as="geometry">
            <Array as="points">
              <mxPoint x="85" y="600" />
              <mxPoint x="210" y="600" />
            </Array>
          </mxGeometry>
        </mxCell>
        <mxCell id="UkDVMLqjuk15lfy5r8hH-2" value="&lt;p style=&quot;margin:0px;margin-top:4px;text-align:center;&quot;&gt;&lt;b&gt;CsvBacktestEngine&lt;/b&gt;&lt;/p&gt;&lt;hr size=&quot;1&quot; style=&quot;border-style:solid;&quot;&gt;&lt;p style=&quot;margin:0px;margin-left:4px;&quot;&gt;- file_path: str&lt;/p&gt;&lt;p style=&quot;margin:0px;margin-left:4px;&quot;&gt;- data: MarketData&lt;/p&gt;&lt;p style=&quot;margin:0px;margin-left:4px;&quot;&gt;- strategy: TradingStrategy&lt;/p&gt;&lt;hr size=&quot;1&quot; style=&quot;border-style:solid;&quot;&gt;&lt;p style=&quot;margin:0px;margin-left:4px;&quot;&gt;+ set_file(str)&lt;br&gt;+ read_file( )&lt;br&gt;+ set_strategy(TradingStrategy)&lt;br&gt;&lt;/p&gt;&lt;p style=&quot;margin:0px;margin-left:4px;&quot;&gt;&lt;span style=&quot;background-color: transparent; color: light-dark(rgb(0, 0, 0), rgb(255, 255, 255));&quot;&gt;+ run_backtest( )&lt;/span&gt;&lt;br&gt;&lt;/p&gt;&lt;p style=&quot;margin:0px;margin-left:4px;&quot;&gt;&lt;br&gt;&lt;/p&gt;" style="verticalAlign=top;align=left;overflow=fill;html=1;whiteSpace=wrap;" vertex="1" parent="1">
          <mxGeometry x="-10" y="415" width="190" height="150" as="geometry" />
        </mxCell>
        <mxCell id="UkDVMLqjuk15lfy5r8hH-13" style="edgeStyle=orthogonalEdgeStyle;rounded=0;orthogonalLoop=1;jettySize=auto;html=1;entryX=0.5;entryY=1;entryDx=0;entryDy=0;exitX=0.5;exitY=0;exitDx=0;exitDy=0;endArrow=block;endFill=0;" edge="1" parent="1" source="UkDVMLqjuk15lfy5r8hH-3" target="4zPNg0r05DYTZhRYqtiM-5">
          <mxGeometry relative="1" as="geometry" />
        </mxCell>
        <mxCell id="UkDVMLqjuk15lfy5r8hH-16" style="edgeStyle=orthogonalEdgeStyle;rounded=0;orthogonalLoop=1;jettySize=auto;html=1;entryX=0.5;entryY=0;entryDx=0;entryDy=0;exitX=0.5;exitY=1;exitDx=0;exitDy=0;startArrow=diamond;startFill=0;" edge="1" parent="1" source="UkDVMLqjuk15lfy5r8hH-3" target="UkDVMLqjuk15lfy5r8hH-6">
          <mxGeometry relative="1" as="geometry">
            <Array as="points">
              <mxPoint x="635" y="640" />
              <mxPoint x="355" y="640" />
            </Array>
          </mxGeometry>
        </mxCell>
        <mxCell id="UkDVMLqjuk15lfy5r8hH-30" style="edgeStyle=orthogonalEdgeStyle;rounded=0;orthogonalLoop=1;jettySize=auto;html=1;entryX=0.5;entryY=0;entryDx=0;entryDy=0;exitX=0.25;exitY=1;exitDx=0;exitDy=0;startArrow=diamond;startFill=0;" edge="1" parent="1" source="UkDVMLqjuk15lfy5r8hH-3" target="UkDVMLqjuk15lfy5r8hH-21">
          <mxGeometry relative="1" as="geometry" />
        </mxCell>
        <mxCell id="UkDVMLqjuk15lfy5r8hH-3" value="&lt;p style=&quot;margin:0px;margin-top:4px;text-align:center;&quot;&gt;&lt;b&gt;WebsocketBacktestEngine&lt;/b&gt;&lt;/p&gt;&lt;hr size=&quot;1&quot; style=&quot;border-style:solid;&quot;&gt;&lt;p style=&quot;margin:0px;margin-left:4px;&quot;&gt;- market_data : WebClient&lt;/p&gt;&lt;p style=&quot;margin:0px;margin-left:4px;&quot;&gt;- strategy : TradingStrategy&lt;/p&gt;&lt;hr size=&quot;1&quot; style=&quot;border-style:solid;&quot;&gt;&lt;p style=&quot;margin:0px;margin-left:4px;&quot;&gt;+ set_client(WebClient)&lt;br&gt;+ connect_market( )&lt;br&gt;+ set_strategy(TradingStrategy)&lt;br&gt;&lt;/p&gt;&lt;p style=&quot;margin:0px;margin-left:4px;&quot;&gt;+ run_live_backtest( )&lt;br&gt;&lt;/p&gt;&lt;p style=&quot;margin:0px;margin-left:4px;&quot;&gt;&lt;br&gt;&lt;/p&gt;" style="verticalAlign=top;align=left;overflow=fill;html=1;whiteSpace=wrap;" vertex="1" parent="1">
          <mxGeometry x="540" y="415" width="190" height="135" as="geometry" />
        </mxCell>
        <mxCell id="UkDVMLqjuk15lfy5r8hH-12" style="edgeStyle=orthogonalEdgeStyle;rounded=0;orthogonalLoop=1;jettySize=auto;html=1;entryX=0.5;entryY=1;entryDx=0;entryDy=0;endArrow=block;endFill=0;" edge="1" parent="1" source="UkDVMLqjuk15lfy5r8hH-4" target="4zPNg0r05DYTZhRYqtiM-5">
          <mxGeometry relative="1" as="geometry" />
        </mxCell>
        <mxCell id="UkDVMLqjuk15lfy5r8hH-17" value="Extends" style="edgeLabel;html=1;align=center;verticalAlign=middle;resizable=0;points=[];" vertex="1" connectable="0" parent="UkDVMLqjuk15lfy5r8hH-12">
          <mxGeometry x="0.4276" relative="1" as="geometry">
            <mxPoint as="offset" />
          </mxGeometry>
        </mxCell>
        <mxCell id="UkDVMLqjuk15lfy5r8hH-15" style="edgeStyle=orthogonalEdgeStyle;rounded=0;orthogonalLoop=1;jettySize=auto;html=1;entryX=0.5;entryY=0;entryDx=0;entryDy=0;startArrow=diamond;startFill=0;" edge="1" parent="1" source="UkDVMLqjuk15lfy5r8hH-4" target="UkDVMLqjuk15lfy5r8hH-6">
          <mxGeometry relative="1" as="geometry" />
        </mxCell>
        <mxCell id="UkDVMLqjuk15lfy5r8hH-18" value="Uses" style="edgeLabel;html=1;align=center;verticalAlign=middle;resizable=0;points=[];" vertex="1" connectable="0" parent="UkDVMLqjuk15lfy5r8hH-15">
          <mxGeometry x="0.5095" y="-3" relative="1" as="geometry">
            <mxPoint x="3" as="offset" />
          </mxGeometry>
        </mxCell>
        <mxCell id="UkDVMLqjuk15lfy5r8hH-29" style="edgeStyle=orthogonalEdgeStyle;rounded=0;orthogonalLoop=1;jettySize=auto;html=1;entryX=0.5;entryY=0;entryDx=0;entryDy=0;exitX=0.189;exitY=0.993;exitDx=0;exitDy=0;exitPerimeter=0;startArrow=diamond;startFill=0;" edge="1" parent="1" source="UkDVMLqjuk15lfy5r8hH-4" target="UkDVMLqjuk15lfy5r8hH-21">
          <mxGeometry relative="1" as="geometry" />
        </mxCell>
        <mxCell id="UkDVMLqjuk15lfy5r8hH-31" value="uses" style="edgeLabel;html=1;align=center;verticalAlign=middle;resizable=0;points=[];" vertex="1" connectable="0" parent="UkDVMLqjuk15lfy5r8hH-29">
          <mxGeometry x="0.6414" y="-1" relative="1" as="geometry">
            <mxPoint as="offset" />
          </mxGeometry>
        </mxCell>
        <mxCell id="UkDVMLqjuk15lfy5r8hH-4" value="&lt;p style=&quot;margin:0px;margin-top:4px;text-align:center;&quot;&gt;&lt;b&gt;ApiBacktestEngine&lt;/b&gt;&lt;/p&gt;&lt;hr size=&quot;1&quot; style=&quot;border-style:solid;&quot;&gt;&lt;p style=&quot;margin: 0px 0px 0px 4px;&quot;&gt;- market_data : WebClient&lt;/p&gt;&lt;p style=&quot;margin:0px;margin-left:4px;&quot;&gt;&lt;span style=&quot;background-color: transparent; color: light-dark(rgb(0, 0, 0), rgb(255, 255, 255));&quot;&gt;- strategy : TradingStrategy&lt;/span&gt;&lt;/p&gt;&lt;hr size=&quot;1&quot; style=&quot;border-style:solid;&quot;&gt;&lt;p style=&quot;margin:0px;margin-left:4px;&quot;&gt;+ set_client(WebClient)&lt;br&gt;+ connect_market( )&lt;br&gt;+ set_strategy(TradingStrategy)&lt;br&gt;&lt;/p&gt;&lt;p style=&quot;margin:0px;margin-left:4px;&quot;&gt;&lt;span style=&quot;background-color: transparent; color: light-dark(rgb(0, 0, 0), rgb(255, 255, 255));&quot;&gt;+ run_backtest( )&lt;/span&gt;&lt;br&gt;&lt;/p&gt;&lt;p style=&quot;margin:0px;margin-left:4px;&quot;&gt;&lt;br&gt;&lt;/p&gt;" style="verticalAlign=top;align=left;overflow=fill;html=1;whiteSpace=wrap;" vertex="1" parent="1">
          <mxGeometry x="260" y="415" width="190" height="135" as="geometry" />
        </mxCell>
        <mxCell id="UkDVMLqjuk15lfy5r8hH-6" value="&lt;p style=&quot;margin:0px;margin-top:4px;text-align:center;&quot;&gt;&lt;i&gt;&amp;lt;&amp;lt;Interface&amp;gt;&amp;gt;&lt;/i&gt;&lt;br&gt;&lt;b&gt;WebClient&lt;/b&gt;&lt;/p&gt;&lt;hr size=&quot;1&quot; style=&quot;border-style:solid;&quot;&gt;&lt;p style=&quot;margin:0px;margin-left:4px;&quot;&gt;&lt;br&gt;&lt;/p&gt;&lt;hr size=&quot;1&quot; style=&quot;border-style:solid;&quot;&gt;&lt;p style=&quot;margin:0px;margin-left:4px;&quot;&gt;+ connect(str)&lt;br&gt;+ send(str)&lt;br&gt;+ receive( ) : str&lt;br&gt;+ close( )&lt;br&gt;&lt;/p&gt;" style="verticalAlign=top;align=left;overflow=fill;html=1;whiteSpace=wrap;" vertex="1" parent="1">
          <mxGeometry x="295" y="690" width="120" height="140" as="geometry" />
        </mxCell>
        <mxCell id="UkDVMLqjuk15lfy5r8hH-9" style="edgeStyle=orthogonalEdgeStyle;rounded=0;orthogonalLoop=1;jettySize=auto;html=1;entryX=0.5;entryY=1;entryDx=0;entryDy=0;endArrow=block;endFill=0;dashed=1;" edge="1" parent="1" source="UkDVMLqjuk15lfy5r8hH-7" target="UkDVMLqjuk15lfy5r8hH-6">
          <mxGeometry relative="1" as="geometry" />
        </mxCell>
        <mxCell id="UkDVMLqjuk15lfy5r8hH-7" value="&lt;p style=&quot;margin:0px;margin-top:4px;text-align:center;&quot;&gt;&lt;b&gt;WebApiClient&lt;/b&gt;&lt;/p&gt;&lt;hr size=&quot;1&quot; style=&quot;border-style:solid;&quot;&gt;&lt;p style=&quot;margin:0px;margin-left:4px;&quot;&gt;&lt;br&gt;&lt;/p&gt;&lt;hr size=&quot;1&quot; style=&quot;border-style:solid;&quot;&gt;&lt;p style=&quot;margin:0px;margin-left:4px;&quot;&gt;+ connect(str)&lt;br&gt;+ send(str)&lt;br&gt;+ receive( ) : str&lt;br&gt;+ close( )&lt;br&gt;&lt;/p&gt;" style="verticalAlign=top;align=left;overflow=fill;html=1;whiteSpace=wrap;" vertex="1" parent="1">
          <mxGeometry x="215" y="910" width="120" height="120" as="geometry" />
        </mxCell>
        <mxCell id="UkDVMLqjuk15lfy5r8hH-10" style="edgeStyle=orthogonalEdgeStyle;rounded=0;orthogonalLoop=1;jettySize=auto;html=1;entryX=0.5;entryY=1;entryDx=0;entryDy=0;exitX=0.5;exitY=0;exitDx=0;exitDy=0;endArrow=block;endFill=0;dashed=1;" edge="1" parent="1" source="UkDVMLqjuk15lfy5r8hH-8" target="UkDVMLqjuk15lfy5r8hH-6">
          <mxGeometry relative="1" as="geometry" />
        </mxCell>
        <mxCell id="UkDVMLqjuk15lfy5r8hH-19" value="Implements" style="edgeLabel;html=1;align=center;verticalAlign=middle;resizable=0;points=[];" vertex="1" connectable="0" parent="UkDVMLqjuk15lfy5r8hH-10">
          <mxGeometry x="0.7" y="-1" relative="1" as="geometry">
            <mxPoint as="offset" />
          </mxGeometry>
        </mxCell>
        <mxCell id="UkDVMLqjuk15lfy5r8hH-8" value="&lt;p style=&quot;margin:0px;margin-top:4px;text-align:center;&quot;&gt;&lt;b&gt;WebsocketClient&lt;/b&gt;&lt;/p&gt;&lt;hr size=&quot;1&quot; style=&quot;border-style:solid;&quot;&gt;&lt;p style=&quot;margin:0px;margin-left:4px;&quot;&gt;&lt;br&gt;&lt;/p&gt;&lt;hr size=&quot;1&quot; style=&quot;border-style:solid;&quot;&gt;&lt;p style=&quot;margin:0px;margin-left:4px;&quot;&gt;+ connect(str)&lt;br&gt;+ send(str)&lt;br&gt;+ receive( ) : str&lt;br&gt;+ close( )&lt;br&gt;&lt;/p&gt;" style="verticalAlign=top;align=left;overflow=fill;html=1;whiteSpace=wrap;" vertex="1" parent="1">
          <mxGeometry x="375" y="910" width="120" height="120" as="geometry" />
        </mxCell>
        <mxCell id="UkDVMLqjuk15lfy5r8hH-21" value="&lt;p style=&quot;margin:0px;margin-top:4px;text-align:center;&quot;&gt;&lt;b&gt;TradingStrategy&lt;/b&gt;&lt;/p&gt;&lt;hr size=&quot;1&quot; style=&quot;border-style:solid;&quot;&gt;&lt;p style=&quot;margin:0px;margin-left:4px;&quot;&gt;&lt;/p&gt;&lt;p style=&quot;margin:0px;margin-left:4px;&quot;&gt;&lt;br&gt;&lt;/p&gt;" style="verticalAlign=top;align=left;overflow=fill;html=1;whiteSpace=wrap;" vertex="1" parent="1">
          <mxGeometry x="160" y="650" width="100" height="30" as="geometry" />
        </mxCell>
      </root>
    </mxGraphModel>
  </diagram>
</mxfile>
